<?xml version="1.0" encoding="UTF-8"?>
<svg viewBox="0 0 399 313" version="1.1" xmlns="http://www.w3.org/2000/svg" xmlns:xlink="http://www.w3.org/1999/xlink">
    <title>ampersand</title>
    <g stroke="none" stroke-width="1" fill="none" fill-rule="evenodd">
        <g id="ampersand" fill="var(--THEME_HIGHLIGHT)" fill-rule="nonzero">
            <path d="M198.075257,313 C263.206385,313 336,284.580368 336,240.030675 C336,207.386503 287.72634,196.24908 254.011403,195.480982 L253.628278,197.017178 C275.849487,199.321472 293.09008,215.067485 293.09008,238.494479 C293.09008,282.660123 254.011403,310.311656 197.692132,310.311656 C132.944128,310.311656 97.6966933,278.435583 97.6966933,222.748466 C97.6966933,160.148466 147.119726,131.344785 197.692132,121.743558 L247.115165,112.52638 L246.732041,109.453988 L195.776511,118.671166 C141.372862,128.656442 116.469783,100.23681 116.469783,58.7595092 C116.469783,22.6588957 138.307868,3.07239264 158.230331,3.07239264 C168.191562,3.07239264 171.639681,5.37668712 171.639681,9.98527607 C171.639681,18.0503067 160.145952,32.2601227 160.145952,48.7742331 C160.145952,79.8822086 180.834664,95.6282209 208.419612,95.6282209 C233.705815,95.6282209 250.563284,78.7300613 250.563284,58.3754601 C250.563284,29.5717791 217.231471,0 157.464082,0 C101.527936,0 42.9099202,19.9705521 42.9099202,57.2233129 C42.9099202,94.4760736 90.4173318,119.055215 173.555302,124.047853 L173.555302,124.815951 C62.0661345,127.120245 0,162.068712 0,215.451534 C0,286.500613 97.6966933,313 198.075257,313 Z M188.750693,291.994943 C236.361496,292.378774 267.975069,270.884233 267.975069,237.107098 C267.975069,230.198138 264.166205,203.713793 232.171745,203.713793 C203.98615,203.713793 193.702216,225.975996 193.702216,248.62203 C193.702216,268.965078 205.509695,288.924294 185.703601,288.540463 C159.422438,288.924294 130.855956,264.742936 130.855956,238.642422 C130.855956,209.471259 166.65928,199.491651 220.364266,194.118016 L279.020776,188.36055 C370.814404,179.148604 399,139.614002 399,87.4129739 C399,46.7268787 367.00554,26 331.583102,26 C283.972299,26 253.882271,47.4945409 253.882271,80.8878454 C253.882271,88.180636 257.691136,114.664981 289.685596,114.28115 C317.871191,114.664981 328.155125,92.402778 328.155125,69.3729128 C328.155125,49.4136963 314.8241,29.4544798 334.630194,29.4544798 C364.339335,29.4544798 392.144044,48.262203 392.144044,73.9788858 C392.144044,103.53388 362.815789,118.503292 301.493075,124.260758 L242.836565,129.634393 C157.137119,137.694846 124,172.239644 124,227.511321 C124,265.126767 156.375346,292.378774 188.750693,291.994943 Z"></path>
        </g>
    </g>
</svg>